# xmcd CD database file
#
# Track frame offsets:
#	150
#	22272
#	37317
#	55635
#	71006
#	90619
#	97639
#	121658
#	150566
#	173501
#	195783
#	216154
#	238117
#	268911
#	295297
#	306432
#
# Disc length: 4191 seconds
#
# Revision: 0
# Processed by: cddbd v1.5.1PL0 Copyright (c) Steve Scherf et al.
# Submitted via: CDex 1.51
#
DISCID=db105d10
DTITLE=Various Artist - The Natural World - The Ultimate in Discovery
DYEAR=2000
DGENRE=New Age
TTITLE0=Brisa del Mar
TTITLE1=Nocturno
TTITLE2=Waltz of the Young Maidens
TTITLE3=The Rolling Hills of Bellevue
TTITLE4=The Flower of Magherally
TTITLE5=Lucidity
TTITLE6=El Trencito
TTITLE7=Flower
TTITLE8=Body Goes Where the Spirit Reaches
TTITLE9=A Place of Peace
TTITLE10=The Elephants Arrive
TTITLE11=Laguna Pastoria
TTITLE12=Aquatic Celebration
TTITLE13=Coral Coast
TTITLE14=Storm
TTITLE15=Ocean Surf
EXTD=YEAR: 2000
EXTT0=
EXTT1=
EXTT2=
EXTT3=
EXTT4=
EXTT5=
EXTT6=
EXTT7=
EXTT8=
EXTT9=
EXTT10=
EXTT11=
EXTT12=
EXTT13=
EXTT14=
EXTT15=
PLAYORDER=
